<?xml version="1.0" standalone="no"?>
<!DOCTYPE svg PUBLIC "-//W3C//DTD SVG 20010904//EN"
 "http://www.w3.org/TR/2001/REC-SVG-20010904/DTD/svg10.dtd">
<svg version="1.0" xmlns="http://www.w3.org/2000/svg"
 width="700.000000pt" height="700.000000pt" viewBox="0 0 700.000000 700.000000"
 preserveAspectRatio="xMidYMid meet">
<metadata>
Created by potrace 1.14, written by Peter Selinger 2001-2017
</metadata>
<g transform="translate(0.000000,700.000000) scale(0.100000,-0.100000)"
fill="#000000" stroke="none">
<path d="M3697 6514 c-1 -1 -108 -5 -237 -8 -367 -10 -401 -14 -527 -61 -212
-80 -401 -267 -544 -540 -34 -65 -86 -182 -93 -210 -2 -5 -6 -17 -9 -25 -30
-79 -79 -269 -92 -355 -47 -325 -50 -329 -202 -340 -68 -6 -100 -10 -198 -29
-156 -30 -259 -80 -346 -166 -63 -63 -120 -157 -133 -220 -3 -14 -10 -50 -16
-81 -6 -30 -13 -201 -15 -380 -3 -178 -7 -346 -9 -374 -2 -27 -7 -93 -11 -145
-8 -108 -9 -865 -1 -878 7 -11 14 -77 21 -177 3 -44 7 -91 10 -105 14 -73 18
-90 37 -145 76 -224 247 -388 450 -430 36 -8 103 -12 158 -11 61 3 106 -1 126
-9 49 -20 74 -71 79 -162 5 -87 15 -205 20 -243 2 -14 7 -59 10 -100 3 -41 8
-99 10 -127 l5 -53 -53 2 c-68 2 -99 -6 -237 -60 -150 -58 -182 -75 -213 -111
-49 -58 -48 -154 2 -210 69 -77 298 -160 566 -206 34 -6 119 -19 135 -21 8 -1
36 -4 61 -8 26 -3 96 -9 155 -11 162 -8 263 -14 324 -22 80 -9 1439 -10 1480
-1 19 5 107 10 195 13 88 3 180 7 205 9 25 3 74 8 110 11 63 5 117 12 170 20
14 2 44 7 67 9 77 10 227 47 333 82 168 56 240 116 250 210 7 62 1 76 -58 138
-42 44 -158 110 -212 120 -14 3 -65 12 -115 21 -49 9 -96 18 -103 21 -9 2 -4
20 18 64 34 67 63 143 80 210 15 57 20 86 36 195 3 22 7 51 9 65 2 14 7 48 10
75 3 28 10 75 15 105 5 30 12 73 15 95 3 23 8 52 10 65 8 40 29 167 40 244 6
43 10 71 25 156 5 30 12 73 15 95 4 22 8 51 11 65 2 14 6 43 9 65 3 22 7 51
10 65 3 14 7 45 10 70 7 63 16 130 20 160 17 120 23 391 11 530 -10 121 -14
144 -46 300 -23 111 -24 203 -5 260 7 20 33 67 57 105 24 39 52 86 60 105 71
157 80 202 80 426 0 105 -3 204 -6 220 -4 16 -9 39 -11 52 -27 126 -96 276
-172 374 -20 26 -139 144 -201 200 -22 20 -48 54 -58 75 -121 271 -236 435
-394 562 -25 20 -47 38 -50 41 -10 11 -166 108 -208 129 -183 93 -474 173
-677 187 -79 6 -265 11 -268 8z m210 -4749 c24 -17 28 -39 38 -189 6 -91 23
-181 48 -252 l14 -39 -86 2 c-48 1 -103 -2 -124 -6 -20 -5 -35 -6 -32 -2 10
17 16 107 19 279 3 158 6 186 22 203 21 23 71 25 101 4z"/>
</g>
</svg>
